<svg id="svg" version="1.1" xmlns="http://www.w3.org/2000/svg" xmlns:xlink="http://www.w3.org/1999/xlink" width="400" height="400" viewBox="0, 0, 400,400"><g id="svgg"><path id="path0" d="M298.500 54.282 C 298.005 54.378,297.600 54.661,297.600 54.911 C 297.600 55.162,292.302 60.594,285.828 66.983 C 279.353 73.373,263.399 89.130,250.375 102.000 C 210.612 141.291,209.072 142.800,208.731 142.800 C 208.549 142.800,208.400 142.974,208.400 143.186 C 208.400 143.594,197.014 154.904,196.373 155.133 C 196.168 155.207,196.000 155.972,196.000 156.833 L 196.000 158.400 233.500 158.398 C 265.983 158.395,271.153 158.315,272.146 157.798 C 272.776 157.469,273.541 157.200,273.846 157.200 C 274.151 157.200,274.400 157.021,274.400 156.801 C 274.400 156.582,274.937 156.177,275.593 155.901 C 276.249 155.626,282.253 149.955,288.936 143.300 C 296.794 135.474,301.371 131.200,301.891 131.200 C 302.411 131.200,307.024 135.509,314.951 143.400 C 321.692 150.110,327.412 155.600,327.662 155.600 C 327.912 155.600,329.066 156.230,330.226 157.000 L 332.336 158.400 366.168 158.400 L 400.000 158.400 400.000 156.571 C 400.000 154.818,399.216 153.323,398.610 153.919 C 398.452 154.074,398.386 153.840,398.462 153.400 C 398.545 152.920,398.400 152.640,398.100 152.700 C 397.825 152.755,397.600 152.608,397.600 152.373 C 397.600 152.117,397.239 152.054,396.700 152.214 C 395.840 152.471,395.834 152.457,396.561 151.902 C 397.153 151.451,397.206 151.251,396.799 150.999 C 396.454 150.786,396.373 150.833,396.562 151.138 C 396.719 151.392,396.657 151.600,396.424 151.600 C 396.191 151.600,396.000 151.262,396.000 150.849 C 396.000 149.986,395.108 149.118,394.330 149.223 C 393.063 149.395,392.712 149.181,392.924 148.368 C 393.082 147.765,392.987 147.596,392.577 147.754 C 392.262 147.874,391.827 147.623,391.592 147.185 C 391.361 146.753,391.313 146.382,391.486 146.360 C 391.659 146.338,391.363 146.198,390.830 146.049 C 390.296 145.900,389.778 145.533,389.678 145.233 C 389.558 144.873,389.670 144.796,390.010 145.006 C 390.351 145.217,390.425 145.165,390.232 144.851 C 390.071 144.591,389.638 144.429,389.270 144.489 C 388.830 144.562,388.600 144.326,388.600 143.800 C 388.600 143.273,388.290 142.956,387.694 142.871 C 387.196 142.801,386.893 142.573,387.022 142.365 C 387.150 142.157,387.423 142.091,387.628 142.217 C 387.832 142.344,388.000 142.249,388.000 142.006 C 388.000 141.763,387.775 141.594,387.500 141.630 C 386.257 141.791,385.952 141.577,386.175 140.700 L 386.404 139.800 385.943 140.696 L 385.481 141.592 384.941 140.550 C 384.297 139.309,384.267 139.070,384.795 139.397 C 385.028 139.541,385.085 139.367,384.935 138.974 C 384.715 138.402,384.603 138.442,384.153 139.253 C 383.688 140.092,383.387 139.830,383.545 138.724 C 383.566 138.573,383.227 138.336,382.792 138.197 C 382.352 138.058,382.000 137.592,382.000 137.149 C 382.000 136.643,381.829 136.458,381.532 136.642 C 381.219 136.835,381.147 136.715,381.315 136.278 C 381.452 135.919,381.365 135.502,381.121 135.351 C 380.852 135.185,380.789 135.259,380.962 135.538 C 381.119 135.792,381.057 136.000,380.824 136.000 C 380.591 136.000,380.400 135.711,380.400 135.357 C 380.400 134.926,380.184 134.797,379.743 134.966 C 379.211 135.171,379.177 135.110,379.563 134.645 C 379.931 134.201,379.930 134.004,379.558 133.774 C 379.253 133.585,379.181 133.645,379.362 133.938 C 379.519 134.192,379.476 134.400,379.266 134.400 C 379.057 134.400,378.781 134.128,378.654 133.796 C 378.527 133.464,378.215 133.239,377.961 133.296 C 377.708 133.353,377.408 133.146,377.295 132.836 C 377.152 132.440,377.292 132.350,377.766 132.532 C 378.175 132.688,378.342 132.630,378.191 132.385 C 378.053 132.161,377.728 132.005,377.470 132.037 C 376.020 132.216,375.514 131.974,375.716 131.200 C 375.871 130.607,375.728 130.400,375.163 130.400 C 374.661 130.400,374.400 130.120,374.400 129.582 C 374.400 129.133,374.175 128.794,373.900 128.830 C 372.640 128.994,372.293 128.811,372.770 128.236 C 373.338 127.552,372.761 127.087,371.801 127.455 C 371.271 127.658,371.159 127.512,371.265 126.756 C 371.369 126.017,371.194 125.771,370.494 125.671 C 369.996 125.601,369.692 125.374,369.819 125.169 C 369.947 124.963,369.764 124.684,369.413 124.550 C 368.997 124.390,368.850 124.009,368.990 123.453 C 369.193 122.644,369.180 122.646,368.743 123.496 L 368.281 124.392 367.741 123.350 C 367.080 122.077,367.065 121.869,367.662 122.238 C 367.955 122.419,368.015 122.347,367.826 122.042 C 367.598 121.674,367.397 121.671,366.964 122.030 C 366.508 122.408,366.400 122.331,366.400 121.625 C 366.400 121.109,366.226 120.860,365.973 121.017 C 365.717 121.175,365.597 120.984,365.673 120.540 C 365.746 120.113,365.589 119.842,365.300 119.900 C 365.025 119.955,364.800 119.809,364.800 119.576 C 364.800 119.343,364.589 119.283,364.332 119.442 C 364.019 119.635,363.947 119.515,364.115 119.078 C 364.252 118.719,364.165 118.302,363.921 118.151 C 363.652 117.985,363.589 118.059,363.762 118.338 C 363.919 118.592,363.857 118.800,363.624 118.800 C 363.391 118.800,363.200 118.536,363.200 118.213 C 363.200 117.879,362.963 117.716,362.652 117.836 C 362.350 117.951,361.988 117.746,361.847 117.378 C 361.658 116.887,361.756 116.774,362.216 116.951 C 362.592 117.095,362.739 117.025,362.585 116.776 C 362.444 116.548,362.030 116.391,361.665 116.427 C 360.395 116.552,360.000 116.396,360.000 115.773 C 360.000 115.308,360.232 115.217,360.900 115.423 C 361.395 115.575,361.665 115.557,361.500 115.383 C 361.229 115.098,360.415 114.929,358.853 114.833 C 358.509 114.812,358.384 114.505,358.516 114.000 C 358.668 113.419,358.528 113.200,358.005 113.200 C 357.609 113.200,357.178 112.921,357.047 112.579 C 356.893 112.178,356.971 112.058,357.266 112.241 C 357.548 112.415,357.614 112.346,357.438 112.062 C 357.281 111.808,356.823 111.600,356.419 111.600 C 356.016 111.600,355.578 111.321,355.447 110.979 C 355.293 110.578,355.371 110.458,355.666 110.641 C 355.957 110.821,356.014 110.746,355.821 110.435 C 355.655 110.166,355.251 110.048,354.923 110.174 C 354.544 110.320,354.249 110.110,354.116 109.602 C 354.001 109.161,353.736 108.800,353.526 108.800 C 353.317 108.800,353.257 108.395,353.392 107.900 C 353.607 107.115,353.581 107.091,353.195 107.708 C 352.950 108.098,352.579 108.311,352.369 108.181 C 352.159 108.051,352.091 107.777,352.217 107.572 C 352.344 107.368,352.244 107.200,351.997 107.200 C 351.724 107.200,351.642 106.845,351.790 106.300 C 352.015 105.469,351.987 105.476,351.431 106.400 C 350.897 107.285,350.582 107.067,350.745 105.924 C 350.766 105.773,350.423 105.534,349.981 105.394 C 349.523 105.249,349.226 104.852,349.289 104.470 C 349.352 104.094,349.172 103.847,348.881 103.906 C 348.580 103.968,348.412 103.716,348.481 103.306 C 348.548 102.909,348.381 102.644,348.100 102.700 C 347.825 102.755,347.600 102.608,347.600 102.373 C 347.600 102.117,347.239 102.054,346.700 102.214 C 345.840 102.471,345.834 102.457,346.561 101.902 C 347.153 101.451,347.206 101.251,346.799 100.999 C 346.454 100.786,346.373 100.833,346.562 101.138 C 346.719 101.392,346.657 101.600,346.424 101.600 C 346.191 101.600,346.000 101.262,346.000 100.849 C 346.000 99.986,345.108 99.118,344.330 99.223 C 343.063 99.395,342.712 99.181,342.924 98.368 C 343.082 97.765,342.987 97.596,342.577 97.754 C 342.262 97.874,341.827 97.623,341.592 97.185 C 341.361 96.753,341.313 96.382,341.486 96.360 C 341.659 96.338,341.363 96.198,340.830 96.049 C 340.296 95.900,339.778 95.533,339.678 95.233 C 339.558 94.873,339.670 94.796,340.010 95.006 C 340.351 95.217,340.425 95.165,340.232 94.851 C 340.071 94.591,339.638 94.429,339.270 94.489 C 338.830 94.562,338.600 94.326,338.600 93.800 C 338.600 93.273,338.290 92.956,337.694 92.871 C 337.196 92.801,336.893 92.573,337.022 92.365 C 337.150 92.157,337.423 92.091,337.628 92.217 C 337.832 92.344,338.000 92.249,338.000 92.006 C 338.000 91.763,337.775 91.594,337.500 91.630 C 336.257 91.791,335.952 91.577,336.175 90.700 L 336.404 89.800 335.943 90.696 L 335.481 91.592 334.941 90.550 C 334.297 89.309,334.267 89.070,334.795 89.397 C 335.028 89.541,335.085 89.367,334.935 88.974 C 334.715 88.402,334.603 88.442,334.153 89.253 C 333.688 90.092,333.387 89.830,333.545 88.724 C 333.566 88.573,333.227 88.336,332.792 88.197 C 332.352 88.058,332.000 87.592,332.000 87.149 C 332.000 86.643,331.829 86.458,331.532 86.642 C 331.219 86.835,331.147 86.715,331.315 86.278 C 331.452 85.919,331.365 85.502,331.121 85.351 C 330.852 85.185,330.789 85.259,330.962 85.538 C 331.119 85.792,331.057 86.000,330.824 86.000 C 330.591 86.000,330.400 85.711,330.400 85.357 C 330.400 84.926,330.184 84.797,329.743 84.966 C 329.211 85.171,329.177 85.110,329.563 84.645 C 329.931 84.201,329.930 84.004,329.558 83.774 C 329.253 83.585,329.181 83.645,329.362 83.938 C 329.519 84.192,329.476 84.400,329.266 84.400 C 329.057 84.400,328.781 84.128,328.654 83.796 C 328.527 83.464,328.215 83.239,327.961 83.296 C 327.708 83.353,327.408 83.146,327.295 82.836 C 327.152 82.440,327.292 82.350,327.766 82.532 C 328.175 82.688,328.342 82.630,328.191 82.385 C 328.053 82.161,327.728 82.005,327.470 82.037 C 326.020 82.216,325.514 81.974,325.716 81.200 C 325.871 80.607,325.728 80.400,325.163 80.400 C 324.661 80.400,324.400 80.120,324.400 79.582 C 324.400 79.133,324.175 78.794,323.900 78.830 C 322.640 78.994,322.293 78.811,322.770 78.236 C 323.338 77.552,322.761 77.087,321.801 77.455 C 321.271 77.658,321.159 77.512,321.265 76.756 C 321.369 76.017,321.194 75.771,320.494 75.671 C 319.996 75.601,319.692 75.374,319.819 75.169 C 319.947 74.963,319.764 74.684,319.413 74.550 C 318.997 74.390,318.850 74.009,318.990 73.453 C 319.193 72.644,319.180 72.646,318.743 73.496 L 318.281 74.392 317.741 73.350 C 317.080 72.077,317.065 71.869,317.662 72.238 C 317.955 72.419,318.015 72.347,317.826 72.042 C 317.598 71.674,317.397 71.671,316.964 72.030 C 316.508 72.408,316.400 72.331,316.400 71.625 C 316.400 71.109,316.226 70.860,315.973 71.017 C 315.717 71.175,315.597 70.984,315.673 70.540 C 315.746 70.113,315.589 69.842,315.300 69.900 C 315.025 69.955,314.800 69.809,314.800 69.576 C 314.800 69.343,314.589 69.283,314.332 69.442 C 314.019 69.635,313.947 69.515,314.115 69.078 C 314.252 68.719,314.165 68.302,313.921 68.151 C 313.652 67.985,313.589 68.059,313.762 68.338 C 313.919 68.592,313.857 68.800,313.624 68.800 C 313.391 68.800,313.200 68.536,313.200 68.213 C 313.200 67.879,312.963 67.716,312.652 67.836 C 312.350 67.951,311.988 67.746,311.847 67.378 C 311.658 66.887,311.756 66.774,312.216 66.951 C 312.592 67.095,312.739 67.025,312.585 66.776 C 312.444 66.548,312.030 66.391,311.665 66.427 C 310.395 66.552,310.000 66.396,310.000 65.773 C 310.000 65.308,310.232 65.217,310.900 65.423 C 311.395 65.575,311.665 65.557,311.500 65.383 C 311.229 65.098,310.415 64.929,308.853 64.833 C 308.509 64.812,308.384 64.505,308.516 64.000 C 308.668 63.419,308.528 63.200,308.005 63.200 C 307.609 63.200,307.178 62.921,307.047 62.579 C 306.893 62.178,306.971 62.058,307.266 62.241 C 307.548 62.415,307.614 62.346,307.438 62.062 C 307.281 61.808,306.823 61.600,306.419 61.600 C 306.016 61.600,305.578 61.321,305.447 60.979 C 305.293 60.578,305.371 60.458,305.666 60.641 C 305.957 60.821,306.014 60.746,305.821 60.435 C 305.655 60.166,305.251 60.048,304.923 60.174 C 304.544 60.320,304.249 60.110,304.116 59.602 C 304.001 59.161,303.736 58.800,303.526 58.800 C 303.317 58.800,303.257 58.395,303.392 57.900 C 303.607 57.115,303.581 57.091,303.195 57.708 C 302.950 58.098,302.579 58.311,302.369 58.181 C 302.159 58.051,302.091 57.777,302.217 57.572 C 302.344 57.368,302.244 57.200,301.997 57.200 C 301.724 57.200,301.642 56.845,301.790 56.300 C 302.015 55.469,301.987 55.476,301.431 56.400 C 300.897 57.285,300.582 57.067,300.745 55.924 C 300.766 55.773,300.414 55.532,299.963 55.388 C 299.471 55.232,299.229 54.902,299.359 54.564 C 299.478 54.254,299.536 54.025,299.487 54.054 C 299.439 54.084,298.995 54.187,298.500 54.282 M0.400 224.800 C 0.933 225.145,0.933 225.189,0.400 225.200 C -0.133 225.211,-0.133 225.255,0.400 225.600 C 0.800 225.858,0.833 225.990,0.500 225.994 C -0.231 226.003,-0.119 228.338,0.649 229.106 C 1.248 229.705,1.240 229.778,0.549 230.049 C -0.064 230.290,-0.081 230.349,0.457 230.372 C 0.819 230.387,1.218 230.670,1.345 231.000 C 1.471 231.330,1.830 231.600,2.141 231.600 C 2.452 231.600,2.801 231.960,2.916 232.400 C 3.031 232.840,3.412 233.200,3.763 233.200 C 4.113 233.200,4.400 233.458,4.400 233.773 C 4.400 234.088,4.760 234.460,5.200 234.600 C 5.640 234.740,6.000 235.020,6.000 235.223 C 6.000 235.777,8.439 238.000,9.047 238.000 C 9.345 238.000,9.478 238.254,9.351 238.583 C 9.203 238.970,9.467 239.252,10.137 239.420 C 10.848 239.598,11.075 239.861,10.904 240.306 C 10.722 240.780,10.834 240.873,11.351 240.674 C 11.762 240.516,11.943 240.569,11.797 240.805 C 11.663 241.022,11.743 241.200,11.976 241.200 C 12.209 241.200,12.400 241.489,12.400 241.843 C 12.400 242.231,12.623 242.400,12.963 242.269 C 13.323 242.131,13.615 242.404,13.771 243.027 C 13.905 243.562,14.270 244.000,14.581 244.000 C 14.892 244.000,15.260 244.360,15.400 244.800 C 15.540 245.240,15.912 245.600,16.227 245.600 C 16.542 245.600,16.800 245.887,16.800 246.237 C 16.800 246.588,17.143 246.965,17.563 247.074 C 17.983 247.184,18.422 247.641,18.539 248.089 C 18.680 248.627,18.964 248.823,19.376 248.665 C 19.817 248.495,20.000 248.667,20.000 249.250 C 20.000 249.738,20.326 250.160,20.800 250.284 C 21.240 250.399,21.600 250.730,21.600 251.020 C 21.600 251.309,21.960 251.660,22.400 251.800 C 22.840 251.940,23.200 252.220,23.200 252.423 C 23.200 252.879,25.590 255.200,26.059 255.200 C 26.247 255.200,26.400 255.489,26.400 255.843 C 26.400 256.196,26.626 256.399,26.902 256.293 C 27.558 256.041,28.312 256.863,28.076 257.572 C 27.948 257.957,28.099 258.048,28.566 257.868 C 28.938 257.726,29.158 257.744,29.056 257.909 C 28.774 258.366,29.893 259.713,30.331 259.443 C 30.542 259.312,30.827 259.654,30.965 260.203 C 31.103 260.753,31.506 261.200,31.864 261.200 C 32.576 261.200,33.422 262.109,34.004 263.500 C 34.211 263.995,34.634 264.400,34.943 264.400 C 35.253 264.400,35.601 264.760,35.716 265.200 C 35.831 265.640,36.191 266.000,36.516 266.000 C 36.841 266.000,37.201 266.360,37.316 266.800 C 37.431 267.240,37.812 267.600,38.163 267.600 C 38.513 267.600,38.807 267.825,38.815 268.100 C 38.824 268.375,39.544 269.093,40.415 269.696 C 41.287 270.299,42.000 271.061,42.000 271.389 C 42.000 271.716,42.438 272.095,42.973 272.229 C 43.541 272.372,43.865 272.686,43.751 272.984 C 43.642 273.267,43.922 273.591,44.377 273.710 C 44.830 273.828,45.200 274.212,45.200 274.563 C 45.200 274.913,45.458 275.200,45.773 275.200 C 46.088 275.200,46.464 275.573,46.609 276.029 C 46.757 276.495,47.103 276.769,47.399 276.656 C 47.717 276.534,48.024 276.841,48.171 277.427 C 48.305 277.962,48.661 278.400,48.961 278.400 C 49.261 278.400,49.607 278.783,49.729 279.252 C 49.878 279.821,50.159 280.024,50.576 279.865 C 51.017 279.695,51.200 279.867,51.200 280.450 C 51.200 280.925,51.523 281.359,51.963 281.474 C 52.383 281.584,52.816 282.017,52.926 282.437 C 53.035 282.857,53.412 283.200,53.763 283.200 C 54.113 283.200,54.400 283.428,54.400 283.706 C 54.400 283.984,55.109 284.649,55.975 285.184 C 56.841 285.720,57.469 286.288,57.371 286.447 C 57.122 286.850,58.339 288.000,59.016 288.000 C 59.333 288.000,59.481 288.245,59.359 288.564 C 59.228 288.903,59.473 289.233,59.971 289.391 C 60.427 289.536,60.800 289.912,60.800 290.227 C 60.800 290.828,61.413 291.014,61.701 290.500 C 61.793 290.335,61.814 290.425,61.747 290.700 C 61.680 290.975,61.799 291.200,62.013 291.200 C 62.226 291.200,62.400 291.470,62.400 291.800 C 62.400 292.130,62.658 292.400,62.973 292.400 C 63.288 292.400,63.660 292.760,63.800 293.200 C 63.940 293.640,64.300 294.000,64.600 294.000 C 64.900 294.000,65.260 294.360,65.400 294.800 C 65.540 295.240,65.891 295.600,66.180 295.600 C 66.470 295.600,66.801 295.960,66.916 296.400 C 67.031 296.840,67.412 297.200,67.763 297.200 C 68.113 297.200,68.400 297.487,68.400 297.837 C 68.400 298.188,68.760 298.569,69.200 298.684 C 69.640 298.799,70.000 299.159,70.000 299.484 C 70.000 299.809,70.360 300.169,70.800 300.284 C 71.240 300.399,71.600 300.730,71.600 301.020 C 71.600 301.309,71.960 301.660,72.400 301.800 C 72.840 301.940,73.200 302.220,73.200 302.423 C 73.200 302.879,75.590 305.200,76.059 305.200 C 76.247 305.200,76.400 305.489,76.400 305.843 C 76.400 306.196,76.626 306.399,76.902 306.293 C 77.558 306.041,78.312 306.863,78.076 307.572 C 77.948 307.957,78.099 308.048,78.566 307.868 C 78.938 307.726,79.158 307.744,79.056 307.909 C 78.774 308.366,79.893 309.713,80.331 309.443 C 80.542 309.312,80.827 309.654,80.965 310.203 C 81.103 310.751,81.461 311.200,81.761 311.200 C 82.061 311.200,82.401 311.560,82.516 312.000 C 82.631 312.440,82.991 312.800,83.316 312.800 C 83.641 312.800,84.001 313.160,84.116 313.600 C 84.231 314.040,84.591 314.400,84.916 314.400 C 85.241 314.400,85.601 314.760,85.716 315.200 C 85.831 315.640,86.191 316.000,86.516 316.000 C 86.841 316.000,87.201 316.360,87.316 316.800 C 87.431 317.240,87.812 317.600,88.163 317.600 C 88.513 317.600,88.800 317.778,88.800 317.997 C 88.800 318.570,91.223 320.800,91.847 320.800 C 92.145 320.800,92.278 321.054,92.151 321.383 C 92.003 321.770,92.267 322.052,92.937 322.220 C 93.536 322.370,93.866 322.683,93.750 322.987 C 93.633 323.292,93.963 323.604,94.562 323.755 C 95.243 323.926,95.497 324.202,95.343 324.604 C 95.202 324.973,95.349 325.200,95.730 325.200 C 96.069 325.200,96.464 325.573,96.609 326.029 C 96.757 326.495,97.103 326.769,97.399 326.656 C 97.717 326.534,98.024 326.841,98.171 327.427 C 98.305 327.962,98.661 328.400,98.961 328.400 C 99.261 328.400,99.607 328.783,99.729 329.252 C 99.874 329.804,100.163 330.023,100.551 329.874 C 100.950 329.721,101.192 329.927,101.275 330.491 C 101.403 331.360,102.400 332.015,102.400 331.230 C 102.400 330.989,106.045 327.118,110.500 322.627 C 114.955 318.137,126.970 305.960,137.200 295.569 C 147.430 285.178,162.190 270.209,170.000 262.305 C 205.043 226.839,204.000 227.936,204.000 226.535 L 204.000 225.571 165.501 225.818 C 144.327 225.954,126.822 226.202,126.601 226.369 C 126.381 226.536,125.210 227.234,124.000 227.919 C 122.471 228.784,118.201 232.770,110.003 240.982 C 103.514 247.482,97.993 252.800,97.733 252.800 C 97.473 252.800,91.802 247.387,85.130 240.771 C 78.459 234.155,72.640 228.572,72.200 228.364 C 71.760 228.156,70.585 227.477,69.588 226.856 C 68.592 226.235,67.467 225.773,67.088 225.828 C 66.710 225.884,66.400 225.675,66.400 225.365 C 66.400 224.890,64.368 224.800,53.700 224.799 C 46.715 224.798,38.155 224.679,34.679 224.535 C 29.652 224.327,28.382 224.378,28.479 224.784 C 28.570 225.170,27.817 225.277,25.387 225.224 C 23.620 225.185,21.643 225.355,20.995 225.602 C 20.172 225.915,19.774 225.922,19.675 225.625 C 19.589 225.367,18.094 225.198,15.867 225.194 C 13.219 225.189,12.367 225.073,12.800 224.774 C 13.224 224.481,11.984 224.395,8.561 224.480 C 5.171 224.564,3.522 224.766,3.054 225.155 C 2.479 225.632,2.283 225.618,1.661 225.055 C 1.263 224.695,0.681 224.403,0.369 224.406 C -0.102 224.411,-0.096 224.479,0.400 224.800 M51.524 225.199 C 58.704 225.199,62.362 225.337,62.200 225.600 C 61.918 226.056,38.238 226.106,32.902 225.662 C 30.789 225.486,29.543 225.534,29.434 225.794 C 29.340 226.017,29.249 225.857,29.232 225.438 C 29.201 224.711,29.463 224.688,34.900 224.936 C 38.035 225.080,45.516 225.198,51.524 225.199 " stroke="none" fill="#73cbfc" fill-rule="evenodd"></path><path id="path1" d="M281.200 35.608 C 281.200 36.080,285.652 40.795,286.100 40.798 C 286.265 40.799,286.400 40.620,286.400 40.400 C 286.400 40.180,286.142 40.000,285.827 40.000 C 285.512 40.000,285.140 39.640,285.000 39.200 C 284.860 38.760,284.500 38.400,284.200 38.400 C 283.900 38.400,283.539 38.037,283.398 37.594 C 283.257 37.151,282.975 36.892,282.770 37.018 C 282.566 37.145,282.223 36.787,282.009 36.224 C 281.613 35.183,281.200 34.868,281.200 35.608 M113.400 39.200 C 113.260 39.640,112.888 40.000,112.573 40.000 C 112.258 40.000,112.000 40.180,112.000 40.400 C 112.000 41.029,112.284 40.887,113.600 39.600 C 114.381 38.836,114.614 38.400,114.241 38.400 C 113.918 38.400,113.540 38.760,113.400 39.200 M293.390 48.248 C 293.747 48.604,294.159 48.774,294.307 48.626 C 294.456 48.478,294.312 48.189,293.988 47.984 C 293.043 47.387,292.687 47.544,293.390 48.248 M296.400 51.264 C 296.730 51.559,297.235 52.070,297.523 52.400 C 297.963 52.906,297.988 52.843,297.677 52.000 C 297.475 51.450,296.970 50.939,296.555 50.864 C 295.894 50.745,295.875 50.795,296.400 51.264 M90.000 62.573 C 90.000 62.888,89.640 63.260,89.200 63.400 C 88.760 63.540,88.400 63.918,88.400 64.241 C 88.400 64.614,88.836 64.381,89.600 63.600 C 90.887 62.284,91.029 62.000,90.400 62.000 C 90.180 62.000,90.000 62.258,90.000 62.573 M80.600 72.000 C 80.460 72.440,80.088 72.800,79.773 72.800 C 79.458 72.800,79.200 72.986,79.200 73.214 C 79.200 73.495,79.458 73.490,80.000 73.200 C 80.440 72.965,80.800 72.592,80.800 72.373 C 80.800 72.154,81.205 71.811,81.700 71.612 L 82.600 71.251 81.727 71.225 C 81.191 71.210,80.756 71.509,80.600 72.000 M72.800 79.773 C 72.800 80.088,72.440 80.460,72.000 80.600 C 71.509 80.756,71.210 81.191,71.225 81.727 L 71.251 82.600 71.612 81.700 C 71.811 81.205,72.154 80.800,72.373 80.800 C 72.592 80.800,72.965 80.440,73.200 80.000 C 73.490 79.458,73.495 79.200,73.214 79.200 C 72.986 79.200,72.800 79.458,72.800 79.773 M63.400 89.200 C 63.260 89.640,62.888 90.000,62.573 90.000 C 62.258 90.000,62.000 90.180,62.000 90.400 C 62.000 91.029,62.284 90.887,63.600 89.600 C 64.381 88.836,64.614 88.400,64.241 88.400 C 63.918 88.400,63.540 88.760,63.400 89.200 M54.461 97.954 C 54.164 98.142,53.984 98.587,54.061 98.943 C 54.166 99.431,54.313 99.346,54.662 98.595 C 54.917 98.048,55.097 97.603,55.062 97.606 C 55.028 97.609,54.757 97.766,54.461 97.954 M47.834 104.657 C 47.645 105.148,47.710 105.212,48.091 104.910 C 48.371 104.689,48.870 104.407,49.200 104.285 C 49.610 104.134,49.528 104.053,48.943 104.032 C 48.471 104.014,47.972 104.295,47.834 104.657 M40.000 112.573 C 40.000 112.888,39.640 113.260,39.200 113.400 C 38.760 113.540,38.400 113.918,38.400 114.241 C 38.400 114.614,38.836 114.381,39.600 113.600 C 40.887 112.284,41.029 112.000,40.400 112.000 C 40.180 112.000,40.000 112.258,40.000 112.573 M30.600 122.000 C 30.460 122.440,30.088 122.800,29.773 122.800 C 29.458 122.800,29.200 122.986,29.200 123.214 C 29.200 123.495,29.458 123.490,30.000 123.200 C 30.440 122.965,30.800 122.592,30.800 122.373 C 30.800 122.154,31.205 121.811,31.700 121.612 L 32.600 121.251 31.727 121.225 C 31.191 121.210,30.756 121.509,30.600 122.000 M22.800 129.773 C 22.800 130.088,22.440 130.460,22.000 130.600 C 21.560 130.740,21.200 131.118,21.200 131.441 C 21.200 131.814,21.636 131.581,22.400 130.800 C 23.687 129.484,23.829 129.200,23.200 129.200 C 22.980 129.200,22.800 129.458,22.800 129.773 M13.400 139.200 C 13.260 139.640,12.888 140.000,12.573 140.000 C 12.258 140.000,12.000 140.180,12.000 140.400 C 12.000 141.029,12.284 140.887,13.600 139.600 C 14.381 138.836,14.614 138.400,14.241 138.400 C 13.918 138.400,13.540 138.760,13.400 139.200 M4.461 147.954 C 4.164 148.142,3.984 148.587,4.061 148.943 C 4.166 149.431,4.313 149.346,4.662 148.595 C 4.917 148.048,5.097 147.603,5.062 147.606 C 5.028 147.609,4.757 147.766,4.461 147.954 M0.000 157.199 C 0.000 157.859,0.180 158.400,0.400 158.400 C 0.620 158.400,0.800 158.760,0.800 159.200 C 0.800 159.733,1.067 160.000,1.600 160.000 C 2.133 160.000,2.400 160.267,2.400 160.800 C 2.400 161.333,2.667 161.600,3.200 161.600 C 3.733 161.600,4.000 161.867,4.000 162.400 C 4.000 162.933,4.267 163.200,4.800 163.200 C 5.333 163.200,5.600 163.467,5.600 164.000 C 5.600 164.533,5.867 164.800,6.400 164.800 C 6.933 164.800,7.200 165.067,7.200 165.600 C 7.200 166.133,7.467 166.400,8.000 166.400 C 8.533 166.400,8.800 166.667,8.800 167.200 C 8.800 167.640,9.058 168.000,9.373 168.000 C 9.688 168.000,10.060 168.360,10.200 168.800 C 10.345 169.256,10.805 169.600,11.270 169.600 C 11.852 169.600,12.016 169.783,11.841 170.237 C 11.678 170.662,11.864 170.944,12.398 171.084 C 12.839 171.199,13.200 171.548,13.200 171.859 C 13.200 172.170,13.506 172.542,13.880 172.686 C 14.254 172.829,15.107 173.544,15.777 174.273 C 16.447 175.003,17.221 175.600,17.497 175.600 C 17.774 175.600,18.000 175.960,18.000 176.400 C 18.000 176.933,18.267 177.200,18.800 177.200 C 19.333 177.200,19.600 177.467,19.600 178.000 C 19.600 178.533,19.867 178.800,20.400 178.800 C 20.933 178.800,21.200 179.067,21.200 179.600 C 21.200 180.133,21.467 180.400,22.000 180.400 C 22.533 180.400,22.800 180.667,22.800 181.200 C 22.800 181.733,23.067 182.000,23.600 182.000 C 24.133 182.000,24.400 182.267,24.400 182.800 C 24.400 183.333,24.667 183.600,25.200 183.600 C 25.733 183.600,26.000 183.867,26.000 184.400 C 26.000 184.918,26.267 185.200,26.756 185.200 C 27.230 185.200,27.490 185.461,27.456 185.900 C 27.421 186.338,27.728 186.646,28.278 186.725 C 28.869 186.809,29.081 187.045,28.926 187.449 C 28.777 187.837,28.996 188.126,29.548 188.271 C 30.017 188.393,30.400 188.742,30.400 189.047 C 30.400 189.351,30.553 189.600,30.741 189.600 C 31.226 189.600,33.600 191.928,33.600 192.403 C 33.600 192.622,33.960 192.800,34.400 192.800 C 34.933 192.800,35.200 193.067,35.200 193.600 C 35.200 194.133,35.467 194.400,36.000 194.400 C 36.533 194.400,36.800 194.667,36.800 195.200 C 36.800 195.733,37.067 196.000,37.600 196.000 C 38.133 196.000,38.400 196.267,38.400 196.800 C 38.400 197.333,38.667 197.600,39.200 197.600 C 39.733 197.600,40.000 197.867,40.000 198.400 C 40.000 198.933,40.267 199.200,40.800 199.200 C 41.333 199.200,41.600 199.467,41.600 200.000 C 41.600 200.440,41.858 200.800,42.173 200.800 C 42.488 200.800,42.861 201.163,43.002 201.606 C 43.143 202.049,43.425 202.308,43.630 202.182 C 43.834 202.055,44.177 202.413,44.391 202.976 C 44.605 203.539,45.034 204.000,45.343 204.000 C 45.653 204.000,46.001 204.360,46.116 204.800 C 46.231 205.240,46.612 205.600,46.963 205.600 C 47.313 205.600,47.600 205.858,47.600 206.173 C 47.600 206.488,47.943 206.855,48.363 206.988 C 48.783 207.121,49.227 207.494,49.350 207.815 C 49.474 208.137,49.851 208.400,50.187 208.400 C 50.533 208.400,50.800 208.748,50.800 209.200 C 50.800 209.733,51.067 210.000,51.600 210.000 C 52.133 210.000,52.400 210.267,52.400 210.800 C 52.400 211.333,52.667 211.600,53.200 211.600 C 53.733 211.600,54.000 211.867,54.000 212.400 C 54.000 212.933,54.267 213.200,54.800 213.200 C 55.333 213.200,55.600 213.467,55.600 214.000 C 55.600 214.533,55.867 214.800,56.400 214.800 C 56.933 214.800,57.200 215.067,57.200 215.600 C 57.200 216.133,57.467 216.400,58.000 216.400 C 58.541 216.400,58.800 216.667,58.800 217.224 C 58.800 217.677,58.979 217.936,59.198 217.801 C 59.417 217.666,59.799 218.000,60.047 218.544 C 60.295 219.087,60.854 219.625,61.289 219.739 C 61.752 219.860,61.964 220.135,61.800 220.400 C 61.636 220.666,61.852 220.941,62.323 221.064 C 62.765 221.179,63.216 221.617,63.326 222.037 C 63.435 222.457,63.812 222.800,64.163 222.800 C 64.513 222.800,64.800 223.058,64.800 223.373 C 64.800 223.688,65.160 224.060,65.600 224.200 C 66.040 224.340,66.400 224.681,66.400 224.959 C 66.400 226.449,71.628 226.765,97.600 226.841 C 124.742 226.922,128.800 226.647,128.800 224.731 C 128.800 224.277,129.008 224.105,129.383 224.249 C 129.768 224.397,130.051 224.137,130.214 223.486 C 130.362 222.895,130.730 222.519,131.131 222.550 C 131.535 222.580,131.849 222.253,131.925 221.722 C 132.009 221.131,132.245 220.919,132.649 221.074 C 133.032 221.221,133.325 221.010,133.461 220.489 C 133.578 220.041,134.017 219.584,134.437 219.474 C 134.857 219.365,135.200 219.009,135.200 218.684 C 135.200 218.359,135.560 217.999,136.000 217.884 C 136.440 217.769,136.800 217.409,136.800 217.084 C 136.800 216.759,137.183 216.393,137.652 216.271 C 138.195 216.129,138.422 215.835,138.279 215.461 C 138.128 215.069,138.390 214.789,139.063 214.620 C 139.697 214.461,139.995 214.163,139.863 213.820 C 139.731 213.477,140.029 213.179,140.663 213.020 C 141.294 212.861,141.595 212.563,141.464 212.223 C 141.343 211.908,141.581 211.594,142.028 211.477 C 142.452 211.366,142.800 210.988,142.800 210.637 C 142.800 210.267,143.135 210.000,143.600 210.000 C 144.133 210.000,144.400 209.733,144.400 209.200 C 144.400 208.667,144.667 208.400,145.200 208.400 C 145.729 208.400,146.000 208.133,146.000 207.613 C 146.000 207.099,146.196 206.900,146.564 207.041 C 146.903 207.172,147.233 206.927,147.391 206.429 C 147.536 205.973,147.900 205.600,148.200 205.600 C 148.500 205.600,148.860 205.240,149.000 204.800 C 149.140 204.360,149.529 204.000,149.864 204.000 C 150.200 204.000,150.569 203.640,150.684 203.200 C 150.799 202.760,151.159 202.400,151.484 202.400 C 151.809 202.400,152.169 202.040,152.284 201.600 C 152.399 201.160,152.759 200.800,153.084 200.800 C 153.409 200.800,153.767 200.446,153.881 200.013 C 153.994 199.581,154.427 199.118,154.843 198.986 C 155.259 198.854,155.600 198.500,155.600 198.200 C 155.600 197.900,155.973 197.536,156.429 197.391 C 156.927 197.233,157.172 196.903,157.041 196.564 C 156.900 196.196,157.099 196.000,157.613 196.000 C 158.133 196.000,158.400 195.729,158.400 195.200 C 158.400 194.667,158.667 194.400,159.200 194.400 C 159.733 194.400,160.000 194.133,160.000 193.600 C 160.000 193.067,160.267 192.800,160.800 192.800 C 161.244 192.800,161.600 192.533,161.600 192.200 C 161.600 191.870,161.867 191.600,162.192 191.600 C 162.518 191.600,162.895 191.162,163.029 190.627 C 163.181 190.021,163.480 189.732,163.820 189.863 C 164.163 189.995,164.461 189.697,164.620 189.063 C 164.774 188.449,165.080 188.133,165.401 188.256 C 165.697 188.369,166.043 188.095,166.191 187.629 C 166.336 187.173,166.729 186.800,167.064 186.800 C 167.400 186.800,167.769 186.440,167.884 186.000 C 167.999 185.560,168.359 185.200,168.684 185.200 C 169.009 185.200,169.369 184.840,169.484 184.400 C 169.599 183.960,169.959 183.600,170.284 183.600 C 170.609 183.600,170.967 183.246,171.081 182.813 C 171.194 182.381,171.627 181.918,172.043 181.786 C 172.459 181.654,172.800 181.300,172.800 181.000 C 172.800 180.700,173.160 180.340,173.600 180.200 C 174.040 180.060,174.400 179.688,174.400 179.373 C 174.400 179.058,174.670 178.800,175.000 178.800 C 175.333 178.800,175.600 178.444,175.600 178.000 C 175.600 177.467,175.867 177.200,176.400 177.200 C 176.933 177.200,177.200 176.933,177.200 176.400 C 177.200 175.867,177.467 175.600,178.000 175.600 C 178.444 175.600,178.800 175.333,178.800 175.000 C 178.800 174.670,179.087 174.400,179.437 174.400 C 179.788 174.400,180.169 174.040,180.284 173.600 C 180.399 173.160,180.759 172.800,181.084 172.800 C 181.409 172.800,181.769 172.440,181.884 172.000 C 181.999 171.560,182.359 171.200,182.684 171.200 C 183.009 171.200,183.369 170.840,183.484 170.400 C 183.599 169.960,183.959 169.600,184.284 169.600 C 184.609 169.600,184.969 169.240,185.084 168.800 C 185.199 168.360,185.559 168.000,185.884 168.000 C 186.209 168.000,186.569 167.640,186.684 167.200 C 186.799 166.760,187.159 166.400,187.484 166.400 C 187.809 166.400,188.169 166.040,188.284 165.600 C 188.399 165.160,188.759 164.800,189.084 164.800 C 189.409 164.800,189.769 164.440,189.884 164.000 C 189.999 163.560,190.359 163.200,190.684 163.200 C 191.009 163.200,191.369 162.840,191.484 162.400 C 191.599 161.960,191.942 161.600,192.247 161.600 C 192.551 161.600,192.800 161.240,192.800 160.800 C 192.800 160.283,193.067 160.000,193.553 160.000 C 194.321 160.000,194.763 158.838,194.492 157.531 C 194.175 156.005,194.257 156.006,95.949 156.002 L 0.000 155.997 0.000 157.199 M274.800 157.396 C 274.250 157.708,272.855 158.181,271.700 158.446 C 270.102 158.812,269.600 159.103,269.600 159.664 C 269.600 160.133,269.310 160.400,268.800 160.400 C 268.360 160.400,268.000 160.658,268.000 160.973 C 268.000 161.288,267.640 161.660,267.200 161.800 C 266.760 161.940,266.400 162.300,266.400 162.600 C 266.400 162.900,266.035 163.262,265.589 163.403 C 265.124 163.551,264.826 163.946,264.889 164.330 C 264.961 164.765,264.765 164.961,264.330 164.889 C 263.946 164.826,263.551 165.124,263.403 165.589 C 263.262 166.035,262.900 166.400,262.600 166.400 C 262.300 166.400,261.940 166.760,261.800 167.200 C 261.660 167.640,261.288 168.000,260.973 168.000 C 260.658 168.000,260.400 168.360,260.400 168.800 C 260.400 169.333,260.133 169.600,259.600 169.600 C 259.067 169.600,258.800 169.867,258.800 170.400 C 258.800 170.933,258.533 171.200,258.000 171.200 C 257.467 171.200,257.200 171.467,257.200 172.000 C 257.200 172.533,256.933 172.800,256.400 172.800 C 255.867 172.800,255.600 173.067,255.600 173.600 C 255.600 174.133,255.333 174.400,254.800 174.400 C 254.267 174.400,254.000 174.667,254.000 175.200 C 254.000 175.717,253.733 176.000,253.247 176.000 C 252.830 176.000,252.400 176.357,252.284 176.800 C 252.169 177.240,251.788 177.600,251.437 177.600 C 251.087 177.600,250.800 177.858,250.800 178.173 C 250.800 178.488,250.444 178.859,250.008 178.997 C 249.573 179.136,249.234 179.373,249.255 179.524 C 249.371 180.338,249.126 180.705,248.500 180.656 C 248.061 180.621,247.821 180.861,247.856 181.300 C 247.905 181.926,247.538 182.171,246.724 182.055 C 246.573 182.034,246.336 182.373,246.197 182.808 C 246.059 183.244,245.669 183.600,245.330 183.600 C 244.949 183.600,244.802 183.827,244.943 184.196 C 245.096 184.596,244.847 184.873,244.186 185.039 C 243.573 185.193,243.200 185.573,243.200 186.043 C 243.200 186.533,242.918 186.800,242.400 186.800 C 241.867 186.800,241.600 187.067,241.600 187.600 C 241.600 188.133,241.333 188.400,240.800 188.400 C 240.267 188.400,240.000 188.667,240.000 189.200 C 240.000 189.733,239.733 190.000,239.200 190.000 C 238.667 190.000,238.400 190.267,238.400 190.800 C 238.400 191.333,238.133 191.600,237.600 191.600 C 237.067 191.600,236.800 191.867,236.800 192.400 C 236.800 192.933,236.533 193.200,236.000 193.200 C 235.560 193.200,235.200 193.458,235.200 193.773 C 235.200 194.088,234.840 194.460,234.400 194.600 C 233.960 194.740,233.600 195.100,233.600 195.400 C 233.600 195.700,233.237 196.061,232.794 196.202 C 232.351 196.343,232.092 196.625,232.218 196.830 C 232.345 197.034,232.012 197.367,231.479 197.570 C 230.946 197.773,230.407 198.331,230.282 198.810 C 230.156 199.289,229.875 199.570,229.656 199.434 C 229.437 199.299,229.143 199.551,229.002 199.994 C 228.861 200.437,228.509 200.800,228.220 200.800 C 227.930 200.800,227.599 201.160,227.484 201.600 C 227.369 202.040,226.988 202.400,226.637 202.400 C 226.267 202.400,226.000 202.735,226.000 203.200 C 226.000 203.733,225.733 204.000,225.200 204.000 C 224.667 204.000,224.400 204.267,224.400 204.800 C 224.400 205.333,224.133 205.600,223.600 205.600 C 223.067 205.600,222.800 205.867,222.800 206.400 C 222.800 206.933,222.533 207.200,222.000 207.200 C 221.467 207.200,221.200 207.467,221.200 208.000 C 221.200 208.517,220.933 208.800,220.447 208.800 C 220.030 208.800,219.600 209.157,219.484 209.600 C 219.369 210.040,218.988 210.400,218.637 210.400 C 218.287 210.400,218.000 210.658,218.000 210.973 C 218.000 211.288,217.637 211.661,217.194 211.802 C 216.751 211.943,216.492 212.225,216.618 212.430 C 216.745 212.634,216.376 212.981,215.800 213.200 C 215.224 213.419,214.851 213.758,214.972 213.954 C 215.239 214.387,214.229 215.295,213.874 214.941 C 213.736 214.802,213.438 215.175,213.212 215.769 C 212.986 216.362,212.634 216.745,212.430 216.618 C 212.225 216.492,211.943 216.751,211.802 217.194 C 211.661 217.637,211.309 218.000,211.020 218.000 C 210.730 218.000,210.399 218.360,210.284 218.800 C 210.169 219.240,209.788 219.600,209.437 219.600 C 209.067 219.600,208.800 219.935,208.800 220.400 C 208.800 220.933,208.533 221.200,208.000 221.200 C 207.467 221.200,207.200 221.467,207.200 222.000 C 207.200 222.533,206.933 222.800,206.400 222.800 C 205.867 222.800,205.600 223.067,205.600 223.600 C 205.600 224.133,205.333 224.400,204.800 224.400 C 204.267 224.400,204.000 224.667,204.000 225.200 C 204.000 225.640,204.213 226.000,204.474 226.000 C 204.735 226.000,205.380 226.405,205.906 226.900 L 206.864 227.800 299.532 227.905 C 350.500 227.963,393.955 228.053,396.100 228.105 L 400.001 228.200 400.000 226.900 C 400.000 226.185,399.820 225.600,399.600 225.600 C 399.380 225.600,399.200 225.330,399.200 225.000 C 399.200 224.667,398.844 224.400,398.400 224.400 C 397.867 224.400,397.600 224.133,397.600 223.600 C 397.600 223.067,397.333 222.800,396.800 222.800 C 396.267 222.800,396.000 222.533,396.000 222.000 C 396.000 221.467,395.733 221.200,395.200 221.200 C 394.667 221.200,394.400 220.933,394.400 220.400 C 394.400 219.867,394.133 219.600,393.600 219.600 C 393.067 219.600,392.800 219.333,392.800 218.800 C 392.800 218.356,392.533 218.000,392.200 218.000 C 391.870 218.000,391.600 217.726,391.600 217.390 C 391.600 217.055,391.139 216.605,390.576 216.391 C 390.013 216.177,389.664 215.821,389.800 215.600 C 389.936 215.379,389.576 215.019,389.000 214.800 C 388.415 214.578,388.069 214.212,388.216 213.974 C 388.362 213.738,388.104 213.448,387.640 213.326 C 387.178 213.206,386.800 212.858,386.800 212.553 C 386.800 212.249,386.453 212.000,386.028 212.000 C 385.534 212.000,385.206 211.675,385.118 211.100 C 385.043 210.605,384.745 210.250,384.456 210.311 C 384.167 210.373,383.836 210.058,383.719 209.611 C 383.600 209.159,383.174 208.800,382.753 208.800 C 382.267 208.800,382.000 208.517,382.000 208.000 C 382.000 207.467,381.733 207.200,381.200 207.200 C 380.667 207.200,380.400 206.933,380.400 206.400 C 380.400 205.867,380.133 205.600,379.600 205.600 C 379.067 205.600,378.800 205.333,378.800 204.800 C 378.800 204.267,378.533 204.000,378.000 204.000 C 377.467 204.000,377.200 203.733,377.200 203.200 C 377.200 202.667,376.933 202.400,376.400 202.400 C 375.867 202.400,375.600 202.133,375.600 201.600 C 375.600 201.160,375.351 200.800,375.047 200.800 C 374.742 200.800,374.399 200.440,374.284 200.000 C 374.169 199.560,373.809 199.200,373.484 199.200 C 373.159 199.200,372.799 198.840,372.684 198.400 C 372.569 197.960,372.209 197.600,371.884 197.600 C 371.559 197.600,371.199 197.240,371.084 196.800 C 370.969 196.360,370.609 196.000,370.284 196.000 C 369.959 196.000,369.599 195.640,369.484 195.200 C 369.369 194.760,369.009 194.400,368.684 194.400 C 368.359 194.400,367.993 194.017,367.871 193.548 C 367.722 192.979,367.441 192.776,367.024 192.935 C 366.589 193.102,366.400 192.936,366.400 192.387 C 366.400 191.867,366.129 191.600,365.600 191.600 C 365.067 191.600,364.800 191.333,364.800 190.800 C 364.800 190.267,364.533 190.000,364.000 190.000 C 363.467 190.000,363.200 189.733,363.200 189.200 C 363.200 188.667,362.933 188.400,362.400 188.400 C 361.867 188.400,361.600 188.133,361.600 187.600 C 361.600 187.067,361.333 186.800,360.800 186.800 C 360.267 186.800,360.000 186.533,360.000 186.000 C 360.000 185.467,359.733 185.200,359.200 185.200 C 358.683 185.200,358.400 184.933,358.400 184.447 C 358.400 184.018,358.038 183.599,357.560 183.474 C 357.063 183.344,356.834 183.068,357.000 182.800 C 357.164 182.534,356.948 182.259,356.477 182.136 C 356.035 182.021,355.584 181.583,355.474 181.163 C 355.365 180.743,354.988 180.400,354.637 180.400 C 354.287 180.400,354.000 180.142,354.000 179.827 C 354.000 179.512,353.659 179.146,353.243 179.014 C 352.827 178.882,352.388 178.396,352.267 177.935 C 352.121 177.377,351.839 177.176,351.424 177.335 C 350.994 177.501,350.800 177.339,350.800 176.814 C 350.800 176.396,350.440 175.940,350.000 175.800 C 349.560 175.660,349.200 175.288,349.200 174.973 C 349.200 174.658,348.840 174.400,348.400 174.400 C 347.867 174.400,347.600 174.133,347.600 173.600 C 347.600 173.067,347.333 172.800,346.800 172.800 C 346.267 172.800,346.000 172.533,346.000 172.000 C 346.000 171.467,345.733 171.200,345.200 171.200 C 344.667 171.200,344.400 170.933,344.400 170.400 C 344.400 169.867,344.133 169.600,343.600 169.600 C 343.083 169.600,342.800 169.333,342.800 168.847 C 342.800 168.418,342.438 167.999,341.960 167.874 C 341.463 167.744,341.234 167.468,341.400 167.200 C 341.566 166.932,341.337 166.656,340.840 166.526 C 340.378 166.406,340.000 166.041,340.000 165.716 C 340.000 165.391,339.640 165.031,339.200 164.916 C 338.760 164.801,338.400 164.441,338.400 164.116 C 338.400 163.791,338.057 163.435,337.637 163.326 C 337.217 163.216,336.779 162.765,336.664 162.323 C 336.548 161.881,336.261 161.638,336.026 161.784 C 335.788 161.931,335.426 161.593,335.209 161.024 C 334.995 160.461,334.545 160.000,334.210 160.000 C 333.874 160.000,333.600 159.730,333.600 159.400 C 333.600 159.070,333.361 158.800,333.069 158.800 C 332.777 158.800,331.430 158.350,330.077 157.800 L 327.616 156.800 301.708 156.814 C 280.087 156.826,275.635 156.922,274.800 157.396 M22.713 224.695 C 23.876 224.776,25.676 224.776,26.713 224.693 C 27.751 224.611,26.800 224.545,24.600 224.546 C 22.400 224.547,21.551 224.614,22.713 224.695 M43.300 224.699 C 46.985 224.765,53.015 224.765,56.700 224.699 C 60.385 224.633,57.370 224.579,50.000 224.579 C 42.630 224.579,39.615 224.633,43.300 224.699 M158.523 225.899 C 161.120 225.969,165.260 225.968,167.723 225.898 C 170.185 225.828,168.060 225.771,163.000 225.772 C 157.940 225.772,155.925 225.829,158.523 225.899 M395.600 234.371 C 395.600 234.575,395.285 234.824,394.900 234.924 C 394.373 235.062,394.423 235.119,395.100 235.154 C 395.654 235.182,396.000 234.969,396.000 234.600 C 396.000 234.270,395.910 234.000,395.800 234.000 C 395.690 234.000,395.600 234.167,395.600 234.371 M391.200 238.400 C 390.870 238.613,390.766 238.791,390.968 238.794 C 391.170 238.797,390.360 239.699,389.168 240.798 C 387.976 241.896,387.136 242.796,387.302 242.798 C 387.468 242.799,388.712 241.720,390.065 240.400 C 392.295 238.224,392.772 237.384,391.200 238.400 M373.580 256.319 C 372.242 257.738,371.601 258.882,372.841 257.639 C 374.896 255.578,375.220 255.201,374.916 255.219 C 374.742 255.230,374.141 255.725,373.580 256.319 M356.567 273.405 C 355.748 274.178,355.150 274.877,355.239 274.959 C 355.327 275.040,356.102 274.408,356.959 273.554 C 358.904 271.616,358.590 271.498,356.567 273.405 M339.858 290.050 C 338.790 291.150,337.980 292.110,338.058 292.184 C 338.136 292.258,339.163 291.347,340.339 290.159 C 341.516 288.972,342.326 288.012,342.139 288.026 C 341.953 288.040,340.926 288.951,339.858 290.050 M323.580 306.319 C 322.242 307.738,321.601 308.882,322.841 307.639 C 324.896 305.578,325.220 305.201,324.916 305.219 C 324.742 305.230,324.141 305.725,323.580 306.319 M306.567 323.405 C 305.748 324.178,305.150 324.877,305.239 324.959 C 305.327 325.040,306.102 324.408,306.959 323.554 C 308.904 321.616,308.590 321.498,306.567 323.405 M102.892 332.475 C 103.139 333.217,104.000 333.340,104.000 332.633 C 104.000 332.285,103.715 332.000,103.367 332.000 C 103.018 332.000,102.805 332.214,102.892 332.475 M104.400 333.797 C 104.400 334.015,106.836 336.400,107.059 336.400 C 107.604 336.400,107.040 335.203,106.400 335.000 C 105.960 334.860,105.600 334.488,105.600 334.173 C 105.600 333.858,105.330 333.600,105.000 333.600 C 104.670 333.600,104.400 333.688,104.400 333.797 M107.600 337.157 C 107.600 337.354,107.870 337.618,108.200 337.745 C 108.565 337.885,108.800 337.745,108.800 337.387 C 108.800 337.064,108.530 336.800,108.200 336.800 C 107.870 336.800,107.600 336.961,107.600 337.157 M109.200 338.613 C 109.200 338.936,109.470 339.200,109.800 339.200 C 110.130 339.200,110.400 339.039,110.400 338.843 C 110.400 338.646,110.130 338.382,109.800 338.255 C 109.435 338.115,109.200 338.255,109.200 338.613 M110.800 340.200 C 110.800 340.530,111.092 340.800,111.449 340.800 C 111.980 340.800,112.008 340.691,111.600 340.200 C 111.326 339.870,111.034 339.600,110.951 339.600 C 110.868 339.600,110.800 339.870,110.800 340.200 M288.900 341.020 C 288.405 341.495,288.000 342.008,288.000 342.158 C 288.000 342.309,288.486 341.981,289.081 341.430 C 289.675 340.879,290.080 340.367,289.981 340.292 C 289.881 340.218,289.395 340.545,288.900 341.020 M113.851 343.388 C 113.987 343.743,114.270 343.977,114.479 343.907 C 115.079 343.707,114.907 343.013,114.223 342.871 C 113.795 342.782,113.680 342.942,113.851 343.388 M115.455 345.000 C 115.582 345.330,115.846 345.600,116.043 345.600 C 116.239 345.600,116.400 345.330,116.400 345.000 C 116.400 344.670,116.136 344.400,115.813 344.400 C 115.455 344.400,115.315 344.635,115.455 345.000 M116.892 346.475 C 117.139 347.217,118.000 347.340,118.000 346.633 C 118.000 346.285,117.715 346.000,117.367 346.000 C 117.018 346.000,116.805 346.214,116.892 346.475 M118.492 348.075 C 118.739 348.817,119.600 348.940,119.600 348.233 C 119.600 347.885,119.315 347.600,118.967 347.600 C 118.618 347.600,118.405 347.814,118.492 348.075 M120.562 349.900 C 120.981 350.395,121.611 350.786,121.962 350.768 C 122.504 350.742,122.509 350.703,122.000 350.516 C 121.670 350.395,121.040 350.004,120.600 349.648 C 119.807 349.006,119.806 349.008,120.562 349.900 M131.119 350.698 C 132.944 350.772,135.824 350.772,137.519 350.697 C 139.214 350.622,137.720 350.561,134.200 350.562 C 130.680 350.562,129.294 350.624,131.119 350.698 " stroke="none" fill="#136cc3" fill-rule="evenodd"></path><path id="path2" d="M115.813 37.377 C 113.716 39.457,112.000 41.348,112.000 41.580 C 112.000 41.811,111.859 41.955,111.686 41.900 C 111.276 41.769,91.769 61.276,91.900 61.686 C 91.955 61.859,91.816 62.000,91.591 62.000 C 91.057 62.000,82.400 70.657,82.400 71.191 C 82.400 71.416,82.211 71.600,81.980 71.600 C 81.750 71.600,79.320 73.841,76.580 76.580 C 73.841 79.320,71.600 81.750,71.600 81.980 C 71.600 82.211,71.416 82.400,71.191 82.400 C 70.657 82.400,62.000 91.057,62.000 91.591 C 62.000 91.816,61.845 91.955,61.656 91.900 C 61.227 91.775,54.400 98.639,54.400 99.194 C 54.400 99.417,54.211 99.600,53.981 99.600 C 53.435 99.600,49.600 103.435,49.600 103.981 C 49.600 104.211,49.417 104.400,49.194 104.400 C 48.639 104.400,41.775 111.227,41.900 111.656 C 41.955 111.845,41.816 112.000,41.591 112.000 C 41.057 112.000,32.400 120.657,32.400 121.191 C 32.400 121.416,32.212 121.600,31.981 121.600 C 31.446 121.600,12.000 141.063,12.000 141.599 C 12.000 141.819,11.845 141.955,11.656 141.900 C 11.227 141.775,4.400 148.639,4.400 149.194 C 4.400 149.417,4.204 149.600,3.964 149.600 C 2.867 149.600,-0.000 153.227,-0.000 154.615 L 0.000 156.000 91.700 156.024 C 142.135 156.037,185.256 156.027,187.525 156.001 C 192.106 155.949,194.211 156.436,194.520 157.617 C 194.633 158.048,194.909 158.400,195.135 158.400 C 195.406 158.400,195.419 157.963,195.172 157.103 C 194.967 156.389,194.800 155.667,194.800 155.498 C 194.800 155.329,198.209 151.818,202.376 147.696 C 206.543 143.573,221.798 128.478,236.276 114.151 C 250.754 99.825,265.660 85.096,269.400 81.421 C 273.140 77.746,280.893 70.073,286.628 64.369 C 293.867 57.172,297.323 54.000,297.928 54.000 C 299.239 54.000,299.451 54.243,289.462 44.283 C 284.326 39.162,280.036 34.708,279.929 34.386 C 279.758 33.874,269.571 33.787,199.680 33.697 L 119.627 33.594 115.813 37.377 M276.600 156.394 C 276.132 156.599,286.527 156.755,301.667 156.772 C 315.894 156.787,327.864 156.904,328.267 157.030 C 328.893 157.227,328.883 157.183,328.200 156.730 C 327.258 156.106,277.993 155.785,276.600 156.394 M2.105 224.687 C 2.714 224.779,3.614 224.777,4.105 224.682 C 4.597 224.587,4.100 224.511,3.000 224.514 C 1.900 224.517,1.497 224.595,2.105 224.687 M15.113 224.695 C 16.276 224.776,18.076 224.776,19.113 224.693 C 20.151 224.611,19.200 224.545,17.000 224.546 C 14.800 224.547,13.951 224.614,15.113 224.695 M22.700 225.093 C 23.635 225.177,25.165 225.177,26.100 225.093 C 27.035 225.009,26.270 224.940,24.400 224.940 C 22.530 224.940,21.765 225.009,22.700 225.093 M33.200 225.241 C 36.194 225.495,63.138 225.623,62.000 225.378 C 61.670 225.307,54.380 225.190,45.800 225.118 C 37.220 225.046,31.550 225.101,33.200 225.241 M204.721 227.500 C 204.853 228.888,204.675 229.182,202.332 231.452 C 200.112 233.601,183.671 250.228,147.872 286.528 C 128.530 306.140,126.263 308.400,125.932 308.400 C 125.749 308.400,125.600 308.554,125.600 308.743 C 125.600 308.932,120.742 314.017,114.805 320.043 C 108.868 326.069,104.008 331.122,104.005 331.272 C 104.002 331.422,103.595 331.622,103.100 331.718 L 102.200 331.891 103.100 331.946 C 103.715 331.983,104.000 332.253,104.000 332.800 C 104.000 333.333,104.267 333.600,104.800 333.600 C 105.240 333.600,105.600 333.858,105.600 334.173 C 105.600 334.488,105.960 334.860,106.400 335.000 C 106.840 335.140,107.200 335.602,107.200 336.027 C 107.200 336.533,107.476 336.800,108.000 336.800 C 108.533 336.800,108.800 337.067,108.800 337.600 C 108.800 338.040,108.935 338.379,109.100 338.353 C 109.990 338.212,110.400 338.487,110.400 339.224 C 110.400 339.677,110.560 339.949,110.755 339.828 C 111.187 339.561,112.095 340.572,111.741 340.926 C 111.602 341.064,111.975 341.362,112.569 341.588 C 113.162 341.814,113.545 342.166,113.418 342.371 C 113.292 342.575,113.596 342.801,114.094 342.871 C 114.700 342.957,114.961 343.232,114.882 343.700 C 114.802 344.177,115.026 344.400,115.582 344.400 C 116.133 344.400,116.400 344.661,116.400 345.200 C 116.400 345.733,116.667 346.000,117.200 346.000 C 117.733 346.000,118.000 346.267,118.000 346.800 C 118.000 347.333,118.267 347.600,118.800 347.600 C 119.290 347.600,119.605 347.871,119.613 348.300 C 119.619 348.685,120.114 349.360,120.713 349.800 C 122.359 351.011,279.201 351.293,280.069 350.086 C 280.361 349.680,280.915 349.230,281.300 349.086 C 281.685 348.943,282.000 348.549,282.000 348.213 C 282.000 347.876,282.287 347.600,282.637 347.600 C 282.988 347.600,283.367 347.246,283.481 346.813 C 283.594 346.381,284.030 345.918,284.449 345.784 C 284.868 345.651,285.109 345.376,284.983 345.173 C 284.858 344.970,285.209 344.596,285.765 344.343 C 286.320 344.090,286.672 343.717,286.547 343.515 C 286.422 343.312,286.698 343.047,287.160 342.926 C 287.622 342.806,288.000 342.539,288.000 342.334 C 288.000 341.849,291.849 338.000,292.334 338.000 C 292.539 338.000,292.806 337.622,292.926 337.160 C 293.047 336.698,293.312 336.422,293.515 336.547 C 293.717 336.672,294.090 336.320,294.343 335.765 C 294.596 335.209,294.970 334.858,295.173 334.983 C 295.376 335.109,295.657 334.849,295.798 334.406 C 295.939 333.963,296.329 333.600,296.664 333.600 C 297.000 333.600,297.369 333.240,297.484 332.800 C 297.599 332.360,297.947 332.000,298.257 332.000 C 298.566 332.000,298.995 331.539,299.209 330.976 C 299.426 330.407,299.788 330.069,300.026 330.216 C 300.261 330.362,300.551 330.108,300.670 329.653 C 300.789 329.199,301.230 328.718,301.649 328.584 C 302.068 328.451,302.309 328.176,302.183 327.973 C 302.058 327.770,302.409 327.396,302.965 327.143 C 303.520 326.890,303.872 326.517,303.747 326.315 C 303.622 326.112,303.898 325.847,304.360 325.726 C 304.822 325.606,305.200 325.341,305.200 325.140 C 305.200 324.684,310.794 319.053,310.816 319.486 C 310.825 319.659,311.103 319.300,311.435 318.688 C 311.767 318.077,312.222 317.690,312.446 317.828 C 312.670 317.967,312.948 317.719,313.064 317.277 C 313.179 316.835,313.617 316.384,314.037 316.274 C 314.457 316.165,314.800 315.809,314.800 315.484 C 314.800 315.159,315.160 314.799,315.600 314.684 C 316.040 314.569,316.400 314.209,316.400 313.884 C 316.400 313.559,316.778 313.194,317.240 313.074 C 317.702 312.953,317.967 312.670,317.828 312.446 C 317.690 312.222,318.077 311.767,318.688 311.435 C 319.300 311.103,319.659 310.825,319.486 310.816 C 319.053 310.794,324.684 305.200,325.140 305.200 C 325.341 305.200,325.606 304.822,325.726 304.360 C 325.847 303.898,326.112 303.622,326.315 303.747 C 326.517 303.872,326.890 303.520,327.143 302.965 C 327.396 302.409,327.770 302.058,327.973 302.183 C 328.176 302.309,328.451 302.068,328.584 301.649 C 328.718 301.230,329.199 300.789,329.653 300.670 C 330.108 300.551,330.362 300.261,330.216 300.026 C 330.069 299.788,330.407 299.426,330.976 299.209 C 331.539 298.995,332.000 298.566,332.000 298.257 C 332.000 297.947,332.360 297.599,332.800 297.484 C 333.240 297.369,333.600 297.000,333.600 296.664 C 333.600 296.329,333.963 295.939,334.406 295.798 C 334.849 295.657,335.109 295.376,334.983 295.173 C 334.858 294.970,335.209 294.596,335.765 294.343 C 336.320 294.090,336.672 293.717,336.547 293.515 C 336.422 293.312,336.698 293.047,337.160 292.926 C 337.622 292.806,338.000 292.539,338.000 292.334 C 338.000 291.849,341.849 288.000,342.334 288.000 C 342.539 288.000,342.806 287.622,342.926 287.160 C 343.047 286.698,343.312 286.422,343.515 286.547 C 343.717 286.672,344.090 286.320,344.343 285.765 C 344.596 285.209,344.970 284.858,345.173 284.983 C 345.376 285.109,345.651 284.868,345.784 284.449 C 345.918 284.030,346.381 283.594,346.813 283.481 C 347.246 283.367,347.600 282.988,347.600 282.637 C 347.600 282.287,347.874 282.000,348.210 282.000 C 348.545 282.000,348.995 281.539,349.209 280.976 C 349.426 280.407,349.788 280.069,350.026 280.216 C 350.261 280.362,350.551 280.108,350.670 279.653 C 350.789 279.199,351.230 278.718,351.649 278.584 C 352.068 278.451,352.309 278.176,352.183 277.973 C 352.058 277.770,352.409 277.396,352.965 277.143 C 353.520 276.890,353.872 276.517,353.747 276.315 C 353.622 276.112,353.898 275.847,354.360 275.726 C 354.822 275.606,355.200 275.341,355.200 275.140 C 355.200 274.684,360.794 269.053,360.816 269.486 C 360.825 269.659,361.103 269.300,361.435 268.688 C 361.767 268.077,362.222 267.690,362.446 267.828 C 362.670 267.967,362.953 267.702,363.074 267.240 C 363.194 266.778,363.559 266.400,363.884 266.400 C 364.209 266.400,364.569 266.040,364.684 265.600 C 364.799 265.160,365.159 264.800,365.484 264.800 C 365.809 264.800,366.165 264.457,366.274 264.037 C 366.384 263.617,366.835 263.179,367.277 263.064 C 367.719 262.948,367.962 262.662,367.818 262.429 C 367.673 262.195,368.009 261.796,368.565 261.543 C 369.120 261.290,369.486 260.938,369.376 260.762 C 369.267 260.585,369.530 260.251,369.962 260.020 C 370.393 259.790,370.859 259.244,370.997 258.809 C 371.136 258.373,371.385 258.058,371.552 258.108 C 371.718 258.159,372.494 257.525,373.275 256.700 C 374.056 255.875,374.877 255.200,375.101 255.200 C 375.324 255.200,375.606 254.822,375.726 254.360 C 375.847 253.898,376.112 253.622,376.315 253.747 C 376.517 253.872,376.890 253.520,377.143 252.965 C 377.396 252.409,377.770 252.058,377.973 252.183 C 378.176 252.309,378.451 252.068,378.584 251.649 C 378.718 251.230,379.199 250.789,379.653 250.670 C 380.108 250.551,380.362 250.261,380.216 250.026 C 380.070 249.790,380.387 249.433,380.921 249.230 C 381.454 249.027,381.993 248.469,382.118 247.990 C 382.254 247.473,382.530 247.233,382.800 247.400 C 383.067 247.565,383.343 247.341,383.470 246.853 C 383.589 246.399,384.030 245.918,384.449 245.784 C 384.868 245.651,385.114 245.384,384.994 245.190 C 384.874 244.996,385.277 244.567,385.888 244.235 C 386.500 243.903,386.843 243.625,386.651 243.616 C 386.459 243.607,386.524 243.332,386.796 243.004 C 387.068 242.677,387.455 242.510,387.655 242.634 C 387.856 242.758,387.970 242.689,387.910 242.481 C 387.849 242.272,388.520 241.416,389.400 240.578 C 390.280 239.740,390.956 238.911,390.902 238.734 C 390.849 238.558,391.237 238.306,391.765 238.173 C 392.292 238.041,392.819 237.569,392.935 237.126 C 393.051 236.682,393.333 236.435,393.561 236.576 C 393.790 236.718,394.091 236.376,394.232 235.816 C 394.372 235.257,394.737 234.800,395.043 234.800 C 395.350 234.800,395.600 234.616,395.600 234.390 C 395.600 234.165,396.061 233.805,396.624 233.591 C 397.187 233.377,397.549 233.042,397.428 232.846 C 397.221 232.511,398.246 231.400,398.761 231.400 C 398.893 231.400,398.953 231.260,398.896 231.089 C 398.839 230.918,399.064 230.673,399.396 230.546 C 400.371 230.172,400.152 228.448,399.100 228.221 C 398.605 228.114,355.149 227.976,302.532 227.913 L 206.864 227.800 205.906 226.900 C 204.635 225.706,204.555 225.746,204.721 227.500 M72.800 227.311 C 74.136 227.964,121.826 228.022,122.923 227.371 C 123.442 227.063,116.363 226.926,97.723 226.882 C 77.044 226.834,72.002 226.920,72.800 227.311 " stroke="none" fill="#2494fb" fill-rule="evenodd"></path><path id="path3" d="M287.200 64.717 C 281.370 70.537,269.475 82.342,260.766 90.950 C 252.057 99.557,233.832 117.572,220.266 130.983 L 195.600 155.366 195.667 156.983 L 195.734 158.600 195.897 157.005 C 195.986 156.128,196.216 155.314,196.408 155.195 C 197.297 154.646,208.400 143.527,208.400 143.186 C 208.400 142.974,208.549 142.800,208.731 142.800 C 209.072 142.800,210.612 141.291,250.375 102.000 C 263.399 89.130,279.353 73.373,285.828 66.983 C 292.302 60.594,297.600 55.163,297.600 54.913 C 297.600 54.663,297.915 54.376,298.300 54.276 C 298.721 54.166,298.760 54.101,298.400 54.113 C 298.070 54.124,293.030 58.896,287.200 64.717 M322.533 78.189 C 322.533 78.506,322.773 78.858,323.067 78.970 C 323.360 79.083,323.600 79.023,323.600 78.836 C 323.600 78.650,323.360 78.299,323.067 78.055 C 322.664 77.721,322.533 77.754,322.533 78.189 M372.533 128.189 C 372.533 128.506,372.773 128.858,373.067 128.970 C 373.360 129.083,373.600 129.023,373.600 128.836 C 373.600 128.650,373.360 128.299,373.067 128.055 C 372.664 127.721,372.533 127.754,372.533 128.189 M288.936 143.300 C 282.253 149.955,276.249 155.626,275.593 155.901 C 274.937 156.177,274.400 156.604,274.400 156.850 C 274.400 157.157,274.557 157.171,274.900 156.894 C 275.175 156.672,276.456 156.160,277.746 155.757 C 279.037 155.354,280.181 154.794,280.289 154.512 C 280.397 154.231,280.826 154.000,281.243 154.000 C 281.659 154.000,282.000 153.741,282.000 153.426 C 282.000 153.110,283.350 151.518,285.000 149.890 C 286.650 148.261,288.000 146.720,288.000 146.464 C 288.000 146.209,288.360 146.000,288.800 146.000 C 289.333 146.000,289.600 145.733,289.600 145.200 C 289.600 144.667,289.867 144.400,290.400 144.400 C 290.917 144.400,291.200 144.133,291.200 143.647 C 291.200 143.230,291.557 142.800,292.000 142.684 C 292.440 142.569,292.800 142.188,292.800 141.837 C 292.800 141.467,293.135 141.200,293.600 141.200 C 294.133 141.200,294.400 140.933,294.400 140.400 C 294.400 139.867,294.667 139.600,295.200 139.600 C 295.733 139.600,296.000 139.333,296.000 138.800 C 296.000 138.360,296.211 138.000,296.469 138.000 C 296.727 138.000,297.897 137.018,299.069 135.818 C 300.241 134.617,301.425 133.587,301.700 133.529 C 302.291 133.403,304.400 135.291,304.400 135.946 C 304.400 136.196,304.586 136.400,304.813 136.400 C 305.358 136.400,316.800 147.835,316.800 148.379 C 316.800 148.611,316.989 148.800,317.219 148.800 C 317.721 148.800,321.600 152.613,321.600 153.106 C 321.600 153.296,322.230 153.698,323.000 154.000 C 323.770 154.302,324.400 154.681,324.400 154.843 C 324.400 155.004,325.345 155.445,326.500 155.823 C 327.655 156.200,329.365 156.952,330.300 157.493 C 331.235 158.034,332.000 158.399,332.000 158.305 C 332.000 158.015,328.115 155.600,327.648 155.600 C 327.405 155.600,321.692 150.110,314.951 143.400 C 307.024 135.509,302.411 131.200,301.891 131.200 C 301.371 131.200,296.794 135.474,288.936 143.300 M300.800 137.600 C 300.800 138.133,300.533 138.400,300.000 138.400 C 299.467 138.400,299.200 138.667,299.200 139.200 C 299.200 139.733,298.933 140.000,298.400 140.000 C 297.867 140.000,297.600 140.267,297.600 140.800 C 297.600 141.333,297.333 141.600,296.800 141.600 C 296.356 141.600,296.000 141.867,296.000 142.200 C 296.000 142.533,295.644 142.800,295.200 142.800 C 294.667 142.800,294.400 143.067,294.400 143.600 C 294.400 144.133,294.133 144.400,293.600 144.400 C 293.067 144.400,292.800 144.667,292.800 145.200 C 292.800 145.644,292.533 146.000,292.200 146.000 C 291.867 146.000,291.600 146.356,291.600 146.800 C 291.600 147.333,291.333 147.600,290.800 147.600 C 290.267 147.600,290.000 147.867,290.000 148.400 C 290.000 148.933,289.733 149.200,289.200 149.200 C 288.667 149.200,288.400 149.467,288.400 150.000 C 288.400 150.533,288.133 150.800,287.600 150.800 C 287.067 150.800,286.800 151.067,286.800 151.600 C 286.800 152.133,286.533 152.400,286.000 152.400 C 285.467 152.400,285.200 152.667,285.200 153.200 C 285.200 153.988,285.467 154.000,302.400 154.000 C 319.333 154.000,319.600 153.988,319.600 153.200 C 319.600 152.667,319.333 152.400,318.800 152.400 C 318.267 152.400,318.000 152.133,318.000 151.600 C 318.000 151.067,317.733 150.800,317.200 150.800 C 316.667 150.800,316.400 150.533,316.400 150.000 C 316.400 149.467,316.133 149.200,315.600 149.200 C 315.067 149.200,314.800 148.933,314.800 148.400 C 314.800 147.867,314.533 147.600,314.000 147.600 C 313.467 147.600,313.200 147.333,313.200 146.800 C 313.200 146.356,312.933 146.000,312.600 146.000 C 312.267 146.000,312.000 145.644,312.000 145.200 C 312.000 144.667,311.733 144.400,311.200 144.400 C 310.667 144.400,310.400 144.133,310.400 143.600 C 310.400 143.067,310.133 142.800,309.600 142.800 C 309.156 142.800,308.800 142.533,308.800 142.200 C 308.800 141.867,308.444 141.600,308.000 141.600 C 307.467 141.600,307.200 141.333,307.200 140.800 C 307.200 140.267,306.933 140.000,306.400 140.000 C 305.867 140.000,305.600 139.733,305.600 139.200 C 305.600 138.667,305.333 138.400,304.800 138.400 C 304.267 138.400,304.000 138.133,304.000 137.600 C 304.000 136.933,303.733 136.800,302.400 136.800 C 301.067 136.800,300.800 136.933,300.800 137.600 M272.000 157.833 C 270.648 158.584,271.611 158.555,273.054 157.802 C 273.684 157.474,273.930 157.221,273.600 157.242 C 273.270 157.262,272.550 157.528,272.000 157.833 M1.920 225.280 C 2.293 225.653,2.507 225.653,2.880 225.280 C 3.253 224.907,3.147 224.800,2.400 224.800 C 1.653 224.800,1.547 224.907,1.920 225.280 M15.787 225.099 C 17.760 225.173,19.476 225.399,19.601 225.602 C 19.726 225.804,20.225 225.866,20.710 225.739 C 22.744 225.208,20.852 224.806,16.676 224.882 L 12.200 224.965 15.787 225.099 M29.232 225.538 C 29.249 225.902,29.339 226.020,29.432 225.800 C 29.535 225.554,30.793 225.487,32.700 225.626 C 35.882 225.859,36.821 225.789,35.147 225.444 C 32.183 224.833,29.200 224.880,29.232 225.538 M137.524 225.899 C 140.673 225.967,145.713 225.967,148.724 225.899 C 151.736 225.831,149.160 225.776,143.000 225.776 C 136.840 225.776,134.376 225.832,137.524 225.899 M69.800 226.992 C 70.680 227.530,71.760 228.144,72.200 228.356 C 72.640 228.568,78.459 234.155,85.130 240.771 C 91.802 247.387,97.473 252.800,97.733 252.800 C 97.993 252.800,103.514 247.480,110.003 240.977 C 119.021 231.939,122.389 228.822,124.300 227.743 C 128.159 225.564,127.451 225.571,122.800 227.758 L 120.600 228.792 97.666 228.796 L 74.732 228.800 71.890 227.400 C 68.613 225.786,67.459 225.560,69.800 226.992 M204.046 226.650 C 203.976 227.934,204.411 227.478,170.000 262.305 C 162.190 270.209,147.430 285.177,137.200 295.567 C 126.970 305.957,115.047 318.045,110.705 322.429 C 106.362 326.813,102.994 330.400,103.220 330.400 C 103.445 330.400,104.732 329.275,106.080 327.900 C 107.428 326.525,119.616 314.159,133.165 300.421 C 146.714 286.683,164.375 268.773,172.412 260.621 C 206.765 225.778,204.677 228.015,204.271 226.477 C 204.137 225.966,204.081 226.009,204.046 226.650 M80.400 229.800 C 80.400 230.133,80.756 230.400,81.200 230.400 C 81.733 230.400,82.000 230.667,82.000 231.200 C 82.000 231.733,82.267 232.000,82.800 232.000 C 83.333 232.000,83.600 232.267,83.600 232.800 C 83.600 233.333,83.867 233.600,84.400 233.600 C 84.933 233.600,85.200 233.867,85.200 234.400 C 85.200 234.933,85.467 235.200,86.000 235.200 C 86.533 235.200,86.800 235.467,86.800 236.000 C 86.800 236.533,87.067 236.800,87.600 236.800 C 88.133 236.800,88.400 237.067,88.400 237.600 C 88.400 238.133,88.667 238.400,89.200 238.400 C 89.733 238.400,90.000 238.667,90.000 239.200 C 90.000 239.733,90.267 240.000,90.800 240.000 C 91.333 240.000,91.600 240.267,91.600 240.800 C 91.600 241.244,91.867 241.600,92.200 241.600 C 92.533 241.600,92.800 241.956,92.800 242.400 C 92.800 242.933,93.067 243.200,93.600 243.200 C 94.133 243.200,94.400 243.467,94.400 244.000 C 94.400 244.533,94.667 244.800,95.200 244.800 C 95.644 244.800,96.000 245.067,96.000 245.400 C 96.000 245.833,96.444 246.000,97.600 246.000 C 98.756 246.000,99.200 245.833,99.200 245.400 C 99.200 245.067,99.556 244.800,100.000 244.800 C 100.533 244.800,100.800 244.533,100.800 244.000 C 100.800 243.467,101.067 243.200,101.600 243.200 C 102.133 243.200,102.400 242.933,102.400 242.400 C 102.400 241.867,102.667 241.600,103.200 241.600 C 103.733 241.600,104.000 241.333,104.000 240.800 C 104.000 240.267,104.267 240.000,104.800 240.000 C 105.333 240.000,105.600 239.733,105.600 239.200 C 105.600 238.667,105.867 238.400,106.400 238.400 C 106.933 238.400,107.200 238.133,107.200 237.600 C 107.200 237.067,107.467 236.800,108.000 236.800 C 108.533 236.800,108.800 236.533,108.800 236.000 C 108.800 235.467,109.067 235.200,109.600 235.200 C 110.133 235.200,110.400 234.933,110.400 234.400 C 110.400 233.867,110.667 233.600,111.200 233.600 C 111.733 233.600,112.000 233.333,112.000 232.800 C 112.000 232.356,112.267 232.000,112.600 232.000 C 112.933 232.000,113.200 231.644,113.200 231.200 C 113.200 230.667,113.467 230.400,114.000 230.400 C 114.444 230.400,114.800 230.133,114.800 229.800 C 114.800 229.367,115.244 229.200,116.400 229.200 C 117.733 229.200,118.000 229.333,118.000 230.000 C 118.000 230.444,117.733 230.800,117.400 230.800 C 117.070 230.800,116.800 230.994,116.800 231.231 C 116.800 231.791,114.591 234.000,114.031 234.000 C 113.794 234.000,113.600 234.169,113.600 234.376 C 113.600 235.202,97.575 250.799,97.344 250.198 C 97.218 249.869,96.864 249.600,96.557 249.600 C 96.251 249.600,96.000 249.313,96.000 248.963 C 96.000 248.612,95.640 248.231,95.200 248.116 C 94.760 248.001,94.400 247.641,94.400 247.316 C 94.400 246.991,94.040 246.631,93.600 246.516 C 93.160 246.401,92.800 246.041,92.800 245.716 C 92.800 245.391,92.440 245.031,92.000 244.916 C 91.560 244.801,91.200 244.441,91.200 244.116 C 91.200 243.791,90.840 243.431,90.400 243.316 C 89.960 243.201,89.600 242.852,89.600 242.541 C 89.600 242.230,89.312 241.864,88.960 241.729 C 88.142 241.415,86.400 239.682,86.400 239.182 C 86.400 238.972,86.252 238.800,86.072 238.800 C 85.541 238.800,83.200 236.570,83.200 236.064 C 83.200 235.809,82.942 235.600,82.627 235.600 C 82.312 235.600,81.940 235.240,81.800 234.800 C 81.660 234.360,81.380 234.000,81.177 234.000 C 80.721 234.000,78.400 231.610,78.400 231.141 C 78.400 230.953,78.130 230.800,77.800 230.800 C 77.467 230.800,77.200 230.444,77.200 230.000 C 77.200 229.333,77.467 229.200,78.800 229.200 C 79.956 229.200,80.400 229.367,80.400 229.800 " stroke="none" fill="#54acfc" fill-rule="evenodd"></path><path id="path4" d="M295.564 55.501 C 294.775 56.325,287.035 64.003,278.364 72.561 C 265.089 85.666,241.055 109.429,202.376 147.696 C 198.209 151.818,194.818 155.418,194.840 155.696 C 194.970 157.341,195.521 158.173,195.560 156.783 C 195.597 155.455,197.155 153.829,220.266 130.983 C 233.832 117.572,252.057 99.556,260.766 90.947 C 269.475 82.338,281.326 70.638,287.103 64.947 C 292.879 59.256,297.604 54.465,297.603 54.300 C 297.597 53.672,296.951 54.053,295.564 55.501 M301.675 133.508 C 301.388 133.604,300.205 134.654,299.046 135.841 C 297.887 137.028,296.727 138.000,296.469 138.000 C 296.211 138.000,296.000 138.360,296.000 138.800 C 296.000 139.333,295.733 139.600,295.200 139.600 C 294.667 139.600,294.400 139.867,294.400 140.400 C 294.400 140.917,294.133 141.200,293.647 141.200 C 293.230 141.200,292.800 141.557,292.684 142.000 C 292.569 142.440,292.188 142.800,291.837 142.800 C 291.467 142.800,291.200 143.135,291.200 143.600 C 291.200 144.133,290.933 144.400,290.400 144.400 C 289.867 144.400,289.600 144.667,289.600 145.200 C 289.600 145.733,289.333 146.000,288.800 146.000 C 288.360 146.000,288.000 146.209,288.000 146.464 C 288.000 146.720,286.650 148.261,285.000 149.890 C 283.350 151.518,282.000 153.110,282.000 153.426 C 282.000 153.741,281.655 154.000,281.233 154.000 C 280.812 154.000,280.396 154.213,280.309 154.472 C 280.223 154.732,279.533 155.169,278.776 155.442 C 277.651 155.849,281.811 155.946,301.600 155.975 C 314.910 155.995,326.250 156.100,326.800 156.210 C 327.350 156.319,327.035 156.122,326.100 155.771 C 325.165 155.420,324.400 155.002,324.400 154.841 C 324.400 154.681,323.770 154.302,323.000 154.000 C 322.230 153.698,321.600 153.296,321.600 153.106 C 321.600 152.613,317.721 148.800,317.219 148.800 C 316.989 148.800,316.800 148.611,316.800 148.379 C 316.800 147.835,305.358 136.400,304.813 136.400 C 304.586 136.400,304.400 136.206,304.400 135.969 C 304.400 135.269,302.241 133.320,301.675 133.508 M304.000 137.600 C 304.000 138.133,304.267 138.400,304.800 138.400 C 305.333 138.400,305.600 138.667,305.600 139.200 C 305.600 139.733,305.867 140.000,306.400 140.000 C 306.933 140.000,307.200 140.267,307.200 140.800 C 307.200 141.333,307.467 141.600,308.000 141.600 C 308.444 141.600,308.800 141.867,308.800 142.200 C 308.800 142.533,309.156 142.800,309.600 142.800 C 310.133 142.800,310.400 143.067,310.400 143.600 C 310.400 144.133,310.667 144.400,311.200 144.400 C 311.733 144.400,312.000 144.667,312.000 145.200 C 312.000 145.644,312.267 146.000,312.600 146.000 C 312.933 146.000,313.200 146.356,313.200 146.800 C 313.200 147.333,313.467 147.600,314.000 147.600 C 314.533 147.600,314.800 147.867,314.800 148.400 C 314.800 148.933,315.067 149.200,315.600 149.200 C 316.133 149.200,316.400 149.467,316.400 150.000 C 316.400 150.533,316.667 150.800,317.200 150.800 C 317.733 150.800,318.000 151.067,318.000 151.600 C 318.000 152.133,318.267 152.400,318.800 152.400 C 319.333 152.400,319.600 152.667,319.600 153.200 C 319.600 153.988,319.333 154.000,302.400 154.000 C 285.467 154.000,285.200 153.988,285.200 153.200 C 285.200 152.667,285.467 152.400,286.000 152.400 C 286.533 152.400,286.800 152.133,286.800 151.600 C 286.800 151.067,287.067 150.800,287.600 150.800 C 288.133 150.800,288.400 150.533,288.400 150.000 C 288.400 149.467,288.667 149.200,289.200 149.200 C 289.733 149.200,290.000 148.933,290.000 148.400 C 290.000 147.867,290.267 147.600,290.800 147.600 C 291.333 147.600,291.600 147.333,291.600 146.800 C 291.600 146.356,291.867 146.000,292.200 146.000 C 292.533 146.000,292.800 145.644,292.800 145.200 C 292.800 144.667,293.067 144.400,293.600 144.400 C 294.133 144.400,294.400 144.133,294.400 143.600 C 294.400 143.067,294.667 142.800,295.200 142.800 C 295.644 142.800,296.000 142.533,296.000 142.200 C 296.000 141.867,296.356 141.600,296.800 141.600 C 297.333 141.600,297.600 141.333,297.600 140.800 C 297.600 140.267,297.867 140.000,298.400 140.000 C 298.933 140.000,299.200 139.733,299.200 139.200 C 299.200 138.667,299.467 138.400,300.000 138.400 C 300.533 138.400,300.800 138.133,300.800 137.600 C 300.800 136.933,301.067 136.800,302.400 136.800 C 303.733 136.800,304.000 136.933,304.000 137.600 M42.525 225.899 C 46.224 225.966,52.164 225.965,55.725 225.899 C 59.286 225.833,56.260 225.779,49.000 225.779 C 41.740 225.779,38.826 225.833,42.525 225.899 M204.000 227.798 C 203.655 228.604,199.919 232.729,195.212 237.500 C 190.709 242.065,180.449 252.469,172.412 260.621 C 164.375 268.773,146.714 286.683,133.165 300.421 C 119.616 314.159,107.428 326.525,106.080 327.900 C 104.732 329.275,103.353 330.400,103.015 330.400 C 102.677 330.400,102.400 330.670,102.400 331.000 C 102.400 331.590,103.995 331.888,104.005 331.300 C 104.008 331.135,108.868 326.069,114.805 320.043 C 120.742 314.017,125.600 308.932,125.600 308.743 C 125.600 308.554,125.749 308.400,125.932 308.400 C 126.263 308.400,128.530 306.140,147.872 286.528 C 179.796 254.158,200.097 233.621,202.331 231.437 C 204.544 229.275,204.846 228.801,204.731 227.679 L 204.600 226.396 204.000 227.798 M71.200 226.913 C 71.200 229.048,117.697 229.985,122.438 227.946 C 124.816 226.922,124.843 226.603,122.483 227.416 C 121.086 227.898,116.955 227.995,98.322 227.983 C 78.051 227.970,74.077 227.818,71.868 226.971 C 71.501 226.830,71.200 226.804,71.200 226.913 M77.200 230.000 C 77.200 230.444,77.467 230.800,77.800 230.800 C 78.130 230.800,78.400 230.953,78.400 231.141 C 78.400 231.610,80.721 234.000,81.177 234.000 C 81.380 234.000,81.660 234.360,81.800 234.800 C 81.940 235.240,82.312 235.600,82.627 235.600 C 82.942 235.600,83.200 235.809,83.200 236.064 C 83.200 236.570,85.541 238.800,86.072 238.800 C 86.252 238.800,86.400 238.972,86.400 239.182 C 86.400 239.682,88.142 241.415,88.960 241.729 C 89.312 241.864,89.600 242.230,89.600 242.541 C 89.600 242.852,89.960 243.201,90.400 243.316 C 90.840 243.431,91.200 243.791,91.200 244.116 C 91.200 244.441,91.560 244.801,92.000 244.916 C 92.440 245.031,92.800 245.391,92.800 245.716 C 92.800 246.041,93.160 246.401,93.600 246.516 C 94.040 246.631,94.400 246.991,94.400 247.316 C 94.400 247.641,94.760 248.001,95.200 248.116 C 95.640 248.231,96.000 248.612,96.000 248.963 C 96.000 249.313,96.251 249.600,96.557 249.600 C 96.864 249.600,97.218 249.869,97.344 250.198 C 97.575 250.799,113.600 235.202,113.600 234.376 C 113.600 234.169,113.794 234.000,114.031 234.000 C 114.591 234.000,116.800 231.791,116.800 231.231 C 116.800 230.994,117.070 230.800,117.400 230.800 C 117.733 230.800,118.000 230.444,118.000 230.000 C 118.000 229.333,117.733 229.200,116.400 229.200 C 115.244 229.200,114.800 229.367,114.800 229.800 C 114.800 230.133,114.444 230.400,114.000 230.400 C 113.467 230.400,113.200 230.667,113.200 231.200 C 113.200 231.644,112.933 232.000,112.600 232.000 C 112.267 232.000,112.000 232.356,112.000 232.800 C 112.000 233.333,111.733 233.600,111.200 233.600 C 110.667 233.600,110.400 233.867,110.400 234.400 C 110.400 234.933,110.133 235.200,109.600 235.200 C 109.067 235.200,108.800 235.467,108.800 236.000 C 108.800 236.533,108.533 236.800,108.000 236.800 C 107.467 236.800,107.200 237.067,107.200 237.600 C 107.200 238.133,106.933 238.400,106.400 238.400 C 105.867 238.400,105.600 238.667,105.600 239.200 C 105.600 239.733,105.333 240.000,104.800 240.000 C 104.267 240.000,104.000 240.267,104.000 240.800 C 104.000 241.333,103.733 241.600,103.200 241.600 C 102.667 241.600,102.400 241.867,102.400 242.400 C 102.400 242.933,102.133 243.200,101.600 243.200 C 101.067 243.200,100.800 243.467,100.800 244.000 C 100.800 244.533,100.533 244.800,100.000 244.800 C 99.556 244.800,99.200 245.067,99.200 245.400 C 99.200 245.833,98.756 246.000,97.600 246.000 C 96.444 246.000,96.000 245.833,96.000 245.400 C 96.000 245.067,95.644 244.800,95.200 244.800 C 94.667 244.800,94.400 244.533,94.400 244.000 C 94.400 243.467,94.133 243.200,93.600 243.200 C 93.067 243.200,92.800 242.933,92.800 242.400 C 92.800 241.956,92.533 241.600,92.200 241.600 C 91.867 241.600,91.600 241.244,91.600 240.800 C 91.600 240.267,91.333 240.000,90.800 240.000 C 90.267 240.000,90.000 239.733,90.000 239.200 C 90.000 238.667,89.733 238.400,89.200 238.400 C 88.667 238.400,88.400 238.133,88.400 237.600 C 88.400 237.067,88.133 236.800,87.600 236.800 C 87.067 236.800,86.800 236.533,86.800 236.000 C 86.800 235.467,86.533 235.200,86.000 235.200 C 85.467 235.200,85.200 234.933,85.200 234.400 C 85.200 233.867,84.933 233.600,84.400 233.600 C 83.867 233.600,83.600 233.333,83.600 232.800 C 83.600 232.267,83.333 232.000,82.800 232.000 C 82.267 232.000,82.000 231.733,82.000 231.200 C 82.000 230.667,81.733 230.400,81.200 230.400 C 80.756 230.400,80.400 230.133,80.400 229.800 C 80.400 229.367,79.956 229.200,78.800 229.200 C 77.467 229.200,77.200 229.333,77.200 230.000 " stroke="none" fill="#4cacfc" fill-rule="evenodd"></path></g></svg>